<?xml version="1.0" encoding="UTF-8"?><svg xmlns="http://www.w3.org/2000/svg" xmlns:xlink="http://www.w3.org/1999/xlink" version="1.1" id="Layer_1" x="0px" y="0px" viewBox="0 0 100 100" xml:space="preserve"><style type="text/css">.st0{fill:#FFFFFF;} .st1{fill-opacity:0.29;} .st2{fill:#AAAAAA;} .st3{fill:url(#SVGID_1_);}</style><path class="st0" d="M5 36.4v18.1h90V36.4v-3.7H5v3.7zM93.5 38c.4 0 .7.4.7.8s-.3.7-.7.7-.7-.4-.7-.8.3-.7.7-.7zm-3 0c.4 0 .7.4.7.8s-.3.7-.7.7-.7-.4-.7-.8.3-.7.7-.7zm-3 0c.4 0 .7.4.7.8s-.3.7-.7.7-.7-.4-.7-.8.3-.7.7-.7zm-3 0c.4 0 .7.4.7.8s-.3.7-.7.7-.7-.4-.7-.8.3-.7.7-.7zm-3 0c.4 0 .7.4.7.8s-.3.7-.7.7-.7-.4-.7-.8.3-.7.7-.7zm-3 0c.4 0 .7.4.7.8s-.3.7-.7.7-.7-.4-.7-.8.3-.7.7-.7zm-3 0c.4 0 .7.4.7.8s-.3.7-.7.7-.7-.4-.7-.8.3-.7.7-.7zm-3 0c.4 0 .7.4.7.8s-.3.7-.7.7-.7-.4-.7-.8.3-.7.7-.7zm-3 0c.4 0 .7.4.7.8s-.3.7-.7.7-.7-.4-.7-.8.3-.7.7-.7zm-3 0c.4 0 .7.4.7.8s-.3.7-.7.7-.7-.4-.7-.8.3-.7.7-.7zm-3 0c.4 0 .7.4.7.8s-.3.7-.7.7-.7-.4-.7-.8.3-.7.7-.7zm-3 0c.4 0 .7.4.7.8s-.3.7-.7.7-.7-.4-.7-.8.3-.7.7-.7zm-3 0c.4 0 .7.4.7.8s-.3.7-.7.7-.7-.4-.7-.8.3-.7.7-.7zm-3 0c.4 0 .7.4.7.8s-.3.7-.7.7-.7-.4-.7-.8.3-.7.7-.7zm-3 0c.4 0 .7.4.7.8s-.3.7-.7.7-.7-.4-.7-.8.3-.7.7-.7zm-3 0c.4 0 .7.4.7.8s-.3.7-.7.7-.7-.4-.7-.8.3-.7.7-.7zm-3 0c.4 0 .7.4.7.8s-.3.7-.7.7-.7-.4-.7-.8.3-.7.7-.7zm-3 0c.4 0 .7.4.7.8s-.3.7-.7.7-.7-.4-.7-.8.3-.7.7-.7zm-3 0c.4 0 .7.4.7.8s-.3.7-.7.7-.7-.4-.7-.8.3-.7.7-.7zm-3 0c.4 0 .7.4.7.8s-.3.7-.7.7-.7-.4-.7-.8.3-.7.7-.7zm-3 0c.4 0 .7.4.7.8s-.3.7-.7.7-.7-.4-.7-.8.3-.7.7-.7zm-3 0c.4 0 .7.4.7.8s-.3.7-.7.7-.7-.4-.7-.8.3-.7.7-.7zm-3 0c.4 0 .7.4.7.8s-.3.7-.7.7-.7-.4-.7-.8.3-.7.7-.7zm-3 0c.4 0 .7.4.7.8s-.3.7-.7.7-.7-.4-.7-.8.3-.7.7-.7zm-3 0c.4 0 .7.4.7.8s-.3.7-.7.7-.7-.4-.7-.8.3-.7.7-.7zm-3 0c.4 0 .7.4.7.8s-.3.7-.7.7-.7-.4-.7-.8.3-.7.7-.7zm-3 0c.4 0 .7.4.7.8s-.3.7-.7.7-.7-.4-.7-.8.3-.7.7-.7zm-3 0c.4 0 .7.4.7.8s-.3.7-.7.7-.7-.4-.7-.8.3-.7.7-.7zm-3 0c.4 0 .7.4.7.8s-.3.7-.7.7-.7-.4-.7-.8.3-.7.7-.7zm-3 0c.4 0 .7.4.7.8s-.3.7-.7.7-.7-.4-.7-.8.3-.7.7-.7z" fill="#FFF"/><path class="st0" d="M6.5 82c2 5.4 6.1 9.5 11.5 11.5C22.9 95 27.4 95 36.4 95h27.2c9 0 13.5 0 18.5-1.6 5.3-1.9 9.5-6.1 11.4-11.4.6-2.1 1-4.1 1.2-6.5H5.3c.2 2.4.5 4.4 1.2 6.5z" fill="#FFF"/><path class="st0" d="M5 63.6c0 4.8 0 8.3.2 11.2h89.6c.2-3 .2-6.5.2-11.2v-8.4H5v8.4z" fill="#FFF"/><path class="st1" d="M5 74.8v.7h.3c0-.2 0-.5-.1-.7H5z" fill-opacity="0.29"/><path class="st1" d="M95 75.5v-.7h-.2c0 .2 0 .5-.1.7h.3z" fill-opacity="0.29"/><path class="st1" fill-opacity="0.29" d="M5 54.5h90v.7H5z"/><path class="st1" d="M5.3 75.5h89.5c0-.2 0-.5.1-.7H5.2c0 .2.1.5.1.7z" fill-opacity="0.29"/><path class="st2" d="M72.5 39.5c.4 0 .7-.3.7-.7 0-.4-.3-.8-.7-.8s-.7.3-.7.7c0 .4.3.8.7.8z" fill="#AAA"/><path class="st2" d="M75.5 39.5c.4 0 .7-.3.7-.7 0-.4-.3-.8-.7-.8s-.7.3-.7.7c0 .4.3.8.7.8z" fill="#AAA"/><path class="st2" d="M66.5 39.5c.4 0 .7-.3.7-.7 0-.4-.3-.8-.7-.8s-.7.3-.7.7c0 .4.3.8.7.8z" fill="#AAA"/><path class="st2" d="M78.5 39.5c.4 0 .7-.3.7-.7 0-.4-.3-.8-.7-.8s-.7.3-.7.7c0 .4.3.8.7.8z" fill="#AAA"/><path class="st2" d="M69.5 39.5c.4 0 .7-.3.7-.7 0-.4-.3-.8-.7-.8s-.7.3-.7.7c0 .4.3.8.7.8z" fill="#AAA"/><path class="st2" d="M63.5 39.5c.4 0 .7-.3.7-.7 0-.4-.3-.8-.7-.8s-.7.3-.7.7c0 .4.3.8.7.8z" fill="#AAA"/><path class="st2" d="M81.5 39.5c.4 0 .7-.3.7-.7 0-.4-.3-.8-.7-.8s-.7.3-.7.7c0 .4.3.8.7.8z" fill="#AAA"/><path class="st2" d="M90.5 39.5c.4 0 .7-.3.7-.7 0-.4-.3-.8-.7-.8s-.7.3-.7.7c0 .4.3.8.7.8z" fill="#AAA"/><path class="st2" d="M60.5 39.5c.4 0 .7-.3.7-.7 0-.4-.3-.8-.7-.8s-.7.3-.7.7c0 .4.3.8.7.8z" fill="#AAA"/><path class="st2" d="M93.5 39.5c.4 0 .7-.3.7-.7 0-.4-.3-.8-.7-.8s-.7.3-.7.7c0 .4.3.8.7.8z" fill="#AAA"/><path class="st2" d="M84.5 39.5c.4 0 .7-.3.7-.7 0-.4-.3-.8-.7-.8s-.7.3-.7.7c0 .4.3.8.7.8z" fill="#AAA"/><path class="st2" d="M87.5 39.5c.4 0 .7-.3.7-.7 0-.4-.3-.8-.7-.8s-.7.3-.7.7c0 .4.3.8.7.8z" fill="#AAA"/><path class="st2" d="M54.5 39.5c.4 0 .7-.3.7-.7 0-.4-.3-.8-.7-.8s-.7.3-.7.7c0 .4.3.8.7.8z" fill="#AAA"/><path class="st2" d="M18.5 39.5c.4 0 .7-.3.7-.7 0-.4-.3-.8-.7-.8s-.7.3-.7.7c0 .4.3.8.7.8z" fill="#AAA"/><path class="st2" d="M21.5 39.5c.4 0 .7-.3.7-.7 0-.4-.3-.8-.7-.8s-.7.3-.7.7c0 .4.3.8.7.8z" fill="#AAA"/><path class="st2" d="M57.5 39.5c.4 0 .7-.3.7-.7 0-.4-.3-.8-.7-.8s-.7.3-.7.7c0 .4.3.8.7.8z" fill="#AAA"/><path class="st2" d="M15.5 39.5c.4 0 .7-.3.7-.7 0-.4-.3-.8-.7-.8s-.7.3-.7.7c0 .4.3.8.7.8z" fill="#AAA"/><path class="st2" d="M6.5 39.5c.4 0 .7-.3.7-.7 0-.4-.3-.8-.7-.8s-.7.3-.7.7c0 .4.3.8.7.8z" fill="#AAA"/><path class="st2" d="M27.5 39.5c.4 0 .7-.3.7-.7 0-.4-.3-.8-.7-.8s-.7.3-.7.7c0 .4.3.8.7.8z" fill="#AAA"/><path class="st2" d="M12.5 39.5c.4 0 .7-.3.7-.7 0-.4-.3-.8-.7-.8s-.7.3-.7.7c0 .4.3.8.7.8z" fill="#AAA"/><path class="st2" d="M9.5 39.5c.4 0 .7-.3.7-.7 0-.4-.3-.8-.7-.8s-.7.3-.7.7c0 .4.3.8.7.8z" fill="#AAA"/><path class="st2" d="M24.5 39.5c.4 0 .7-.3.7-.7 0-.4-.3-.8-.7-.8s-.7.3-.7.7c0 .4.3.8.7.8z" fill="#AAA"/><path class="st2" d="M45.5 39.5c.4 0 .7-.3.7-.7 0-.4-.3-.8-.7-.8s-.7.3-.7.7c0 .4.3.8.7.8z" fill="#AAA"/><path class="st2" d="M48.5 39.5c.4 0 .7-.3.7-.7 0-.4-.3-.8-.7-.8s-.7.3-.7.7c0 .4.3.8.7.8z" fill="#AAA"/><path class="st2" d="M30.5 39.5c.4 0 .7-.3.7-.7 0-.4-.3-.8-.7-.8s-.7.3-.7.7c0 .4.3.8.7.8z" fill="#AAA"/><path class="st2" d="M51.5 39.5c.4 0 .7-.3.7-.7 0-.4-.3-.8-.7-.8s-.7.3-.7.7c0 .4.3.8.7.8z" fill="#AAA"/><path class="st2" d="M42.5 39.5c.4 0 .7-.3.7-.7 0-.4-.3-.8-.7-.8s-.7.3-.7.7c0 .4.3.8.7.8z" fill="#AAA"/><path class="st2" d="M33.5 39.5c.4 0 .7-.3.7-.7 0-.4-.3-.8-.7-.8s-.7.3-.7.7c0 .4.3.8.7.8z" fill="#AAA"/><path class="st2" d="M36.5 39.5c.4 0 .7-.3.7-.7 0-.4-.3-.8-.7-.8s-.7.3-.7.7c0 .4.3.8.7.8z" fill="#AAA"/><path class="st2" d="M39.5 39.5c.4 0 .7-.3.7-.7 0-.4-.3-.8-.7-.8s-.7.3-.7.7c0 .4.3.8.7.8z" fill="#AAA"/><linearGradient id="SVGID_1_" gradientUnits="userSpaceOnUse" x1="-906.9355" y1="-561.3496" x2="-906.9355" y2="-559.8502" gradientTransform="matrix(62 0 0 18.5 56280 10390)"><stop offset="0" stop-color="#FFDB4C"/><stop offset="1" stop-color="#FFCD02"/></linearGradient><path class="st3" d="M82 6.5C77.1 5 72.6 5 63.6 5H36.4C27.3 5 22.8 5 18 6.6 12.6 8.5 8.5 12.7 6.5 18 5.2 22.2 5 26.1 5 32.7h90c0-6.7-.2-10.6-1.6-14.8-1.9-5.3-6.1-9.5-11.4-11.4z" fill="url(#SVGID_1_)"/><metadata><rdf:RDF xmlns:rdf="http://www.w3.org/1999/02/22-rdf-syntax-ns#" xmlns:rdfs="http://www.w3.org/2000/01/rdf-schema#" xmlns:dc="http://purl.org/dc/elements/1.1/"><rdf:Description about="https://iconscout.com/legal#licenses" dc:title="apple,note" dc:description="apple,note" dc:publisher="Iconscout" dc:date="2017-10-27" dc:format="image/svg+xml" dc:language="en"><dc:creator><rdf:Bag><rdf:li>Vicons Design</rdf:li></rdf:Bag></dc:creator></rdf:Description></rdf:RDF></metadata></svg>