<?xml version="1.0" encoding="UTF-8"?><svg xmlns="http://www.w3.org/2000/svg" xmlns:xlink="http://www.w3.org/1999/xlink" version="1.1" id="Layer_1" x="0px" y="0px" viewBox="0 0 100 100" xml:space="preserve" enable-background="new 0 0 100 100"><style type="text/css">.st0{fill:url(#Background_13_);} .st1{fill:url(#path-2_7_);} .st2{filter:url(#Adobe_OpacityMaskFilter);} .st3{fill:#FFFFFF;} .st4{mask:url(#mask-3_1_);fill:#FFFFFF;} .st5{fill:url(#SVGID_1_);} .st6{fill:#1E1E1F;} .st7{fill:url(#Oval_6_);} .st8{stroke:#000000;stroke-width:0.3;} .st9{fill:#2B2A2A;} .st10{fill:#FF9500;} .st11{fill:url(#Background_14_);} .st12{fill:url(#path-2_8_);} .st13{filter:url(#Adobe_OpacityMaskFilter_1_);} .st14{mask:url(#mask-3_2_);} .st15{fill:#FFFFFF;fill-opacity:0.7;} .st16{fill:url(#Background_15_);} .st17{fill:url(#Background_16_);} .st18{fill:url(#Background_17_);} .st19{filter:url(#Adobe_OpacityMaskFilter_2_);} .st20{mask:url(#mask-2_6_);fill-opacity:0.29;} .st21{filter:url(#Adobe_OpacityMaskFilter_3_);} .st22{mask:url(#mask-2_5_);} .st23{fill:url(#path-4_2_);} .st24{filter:url(#Adobe_OpacityMaskFilter_4_);} .st25{mask:url(#mask-2_4_);} .st26{fill:#AAAAAA;} .st27{fill:url(#Background_18_);} .st28{fill:#141416;} .st29{filter:url(#Adobe_OpacityMaskFilter_5_);} .st30{mask:url(#mask-2_3_);fill:url(#Chart_1_);stroke:#FFFFFF;stroke-width:0.75;} .st31{filter:url(#Adobe_OpacityMaskFilter_6_);} .st32{mask:url(#mask-2_2_);} .st33{fill:#01A6F1;} .st34{filter:url(#Adobe_OpacityMaskFilter_7_);} .st35{mask:url(#mask-2_1_);fill:#777778;} .st36{fill:url(#Background_19_);} .st37{fill:#2E2E30;} .st38{fill:#7F7F7F;} .st39{fill:#777777;} .st40{fill:none;} .st41{fill:url(#SVGID_2_);} .st42{fill:url(#Oval_7_);} .st43{filter:url(#Adobe_OpacityMaskFilter_8_);} .st44{mask:url(#mask-3_3_);fill:#FF1414;} .st45{filter:url(#Adobe_OpacityMaskFilter_9_);} .st46{mask:url(#mask-2_8_);} .st47{fill:#1BADF8;} .st48{fill:#63DA38;} .st49{filter:url(#Adobe_OpacityMaskFilter_10_);} .st50{mask:url(#mask-2_7_);} .st51{fill:#B7B7B7;} .st52{filter:url(#Adobe_OpacityMaskFilter_11_);} .st53{mask:url(#mask-2_24_);fill:url(#Red_1_);} .st54{filter:url(#Adobe_OpacityMaskFilter_12_);} .st55{mask:url(#mask-2_23_);fill:url(#Orange_1_);} .st56{filter:url(#Adobe_OpacityMaskFilter_13_);} .st57{mask:url(#mask-2_22_);fill:url(#Yellow_1_);} .st58{filter:url(#Adobe_OpacityMaskFilter_14_);} .st59{mask:url(#mask-2_21_);fill:url(#Green_1_);} .st60{filter:url(#Adobe_OpacityMaskFilter_15_);} .st61{mask:url(#mask-2_20_);fill:url(#Turquoise_1_);} .st62{filter:url(#Adobe_OpacityMaskFilter_16_);} .st63{mask:url(#mask-2_19_);fill:url(#Blue_1_);} .st64{filter:url(#Adobe_OpacityMaskFilter_17_);} .st65{mask:url(#mask-2_18_);fill:url(#Purple_1_);} .st66{filter:url(#Adobe_OpacityMaskFilter_18_);} .st67{mask:url(#mask-2_17_);fill:url(#Pink_1_);} .st68{fill:url(#Background_20_);} .st69{fill:#353535;} .st70{fill:url(#SVGID_3_);}</style><g id="Symbols"><linearGradient id="path-2_7_" gradientUnits="userSpaceOnUse" x1="286.9831" y1="748.2662" x2="286.9831" y2="746.7667" gradientTransform="matrix(60 0 0 -60 -17169 44901)"><stop offset="0" stop-color="#19E6FF"/><stop offset="1" stop-color="#1E51EE"/></linearGradient><path id="path-2_1_" class="st1" d="M63.6 5c9 0 13.5 0 18.4 1.5 5.3 1.9 9.5 6.1 11.4 11.4C95 22.8 95 27.4 95 36.4v27.2c0 9 0 13.5-1.5 18.4-1.9 5.3-6.1 9.5-11.4 11.4-5 1.6-9.5 1.6-18.5 1.6H36.4c-9 0-13.5 0-18.4-1.5-5.4-2-9.5-6.1-11.5-11.5C5 77.2 5 72.7 5 63.6V36.4c0-9 0-13.5 1.5-18.4 2-5.3 6.1-9.5 11.5-11.4C22.8 5 27.3 5 36.4 5h27.2z" fill="url(#path-2_7_)"/><defs><filter id="Adobe_OpacityMaskFilter" filterUnits="userSpaceOnUse" x="17" y="21.5" width="66.2" height="58.1"><feColorMatrix type="matrix" values="1 0 0 0 0 0 1 0 0 0 0 0 1 0 0 0 0 0 1 0"/></filter></defs><mask maskUnits="userSpaceOnUse" x="17" y="21.5" width="66.2" height="58.1" id="mask-3_1_"><g class="st2" filter="url(#Adobe_OpacityMaskFilter)"><path id="path-2_2_" class="st3" d="M63.6 5c9 0 13.5 0 18.4 1.5 5.3 1.9 9.5 6.1 11.4 11.4C95 22.8 95 27.4 95 36.4v27.2c0 9 0 13.5-1.5 18.4-1.9 5.3-6.1 9.5-11.4 11.4-5 1.6-9.5 1.6-18.5 1.6H36.4c-9 0-13.5 0-18.4-1.5-5.4-2-9.5-6.1-11.5-11.5C5 77.2 5 72.7 5 63.6V36.4c0-9 0-13.5 1.5-18.4 2-5.3 6.1-9.5 11.5-11.4C22.8 5 27.3 5 36.4 5h27.2z" fill="#FFF"/></g></mask><path id="Icon" class="st4" d="M25.3 68.3c.1-.2.3-.3.5-.4.8-.2 1.6-.4 2.4-.4 2.2 0 4.2.8 5.8 2.2.2.2.2.5.1.7l-4.1 7c-.8 1.4-2.3 2.2-3.8 2.2-.9 0-1.8-.3-2.6-.9-1.8-1.3-2.2-3.9-1.1-5.8l2.8-4.6zm53.3-10.7c2.3 0 4.3 1.7 4.5 3.9.2 2.6-1.8 4.8-4.3 4.8h-5.3l3.9 6.7c1.1 1.9.7 4.5-1.1 5.8-.8.6-1.7.9-2.6.9-1.5 0-3-.8-3.8-2.2l-9.4-16.3-7.4-12.8c-.1-.1-.1-.2-.1-.4 0-.5-.1-1-.1-1.5 0-3.5.8-7 2.4-9.8.2-.3.7-.3.9 0l12.2 20.8h10.2zm-23 .2c2.2 1.3 3.6 3.8 3.6 6.6 0 .6-.1 1.1-.2 1.7 0 .1-.2.2-.3.2H21.4c-2.5 0-4.6-2.2-4.3-4.8.2-2.3 2.2-3.9 4.5-3.9h9.9L45 34.4l-3.7-6.3c-1.3-2.2-.4-5.1 2-6.1 2.1-.9 4.5 0 5.7 1.9l1.1 1.9 1.2-2c1.3-2.2 4.2-2.9 6.3-1.4 1.9 1.3 2.3 3.9 1.1 5.9L41.5 57.6h13.4c.3 0 .5.1.7.2z" fill="#FFF" mask="url(#mask-3_1_)"/></g><metadata><rdf:RDF xmlns:rdf="http://www.w3.org/1999/02/22-rdf-syntax-ns#" xmlns:rdfs="http://www.w3.org/2000/01/rdf-schema#" xmlns:dc="http://purl.org/dc/elements/1.1/"><rdf:Description about="https://iconscout.com/legal#licenses" dc:title="apple,store" dc:description="apple,store" dc:publisher="Iconscout" dc:date="2017-10-27" dc:format="image/svg+xml" dc:language="en"><dc:creator><rdf:Bag><rdf:li>Vicons Design</rdf:li></rdf:Bag></dc:creator></rdf:Description></rdf:RDF></metadata></svg>