<?xml version="1.0" encoding="UTF-8"?><svg xmlns="http://www.w3.org/2000/svg" xmlns:xlink="http://www.w3.org/1999/xlink" version="1.1" id="Layer_1" x="0px" y="0px" viewBox="0 0 100 100" xml:space="preserve"><style type="text/css">.st0{fill:#FFFFFF;} .st1{fill:#FF7E7B;} .st2{fill:#FF6F3F;} .st3{fill:#FFAC00;} .st4{fill:#FFC300;} .st5{fill:#FF3400;} .st6{fill:#F0EA0D;} .st7{fill:#DAE411;} .st8{fill:#EAA200;} .st9{fill:#E63300;} .st10{fill:#83D567;} .st11{fill:#A2DD50;} .st12{fill:#8BC100;} .st13{fill:#8D8800;} .st14{fill:#44C899;} .st15{fill:#4EBFBD;} .st16{fill:#00A33F;} .st17{fill:#008D08;} .st18{fill:#859ED5;} .st19{fill:#6EACDF;} .st20{fill:#1D7B97;} .st21{fill:#00683A;} .st22{fill:#BE85C1;} .st23{fill:#AB86C4;} .st24{fill:#5D53A6;} .st25{fill:#243F76;} .st26{fill:#F1648A;} .st27{fill:#E275A8;} .st28{fill:#E40017;} .st29{fill:#E60000;} .st30{fill:#9F3174;} .st31{fill:#9F0017;} .st32{fill:#561E5D;}</style><g id="Symbols_12_"><g id="Graphics-_x2F_-App-Icons-_x2F_-Photos_2_"><g id="Photos-Icon_2_"><g id="Mask_1_"><path id="path-1_29_" class="st0" d="M63.6 5c9 0 13.6 0 18.4 1.5 5.3 1.9 9.5 6.1 11.4 11.4C95 22.8 95 27.3 95 36.4v27.2c0 9 0 13.6-1.5 18.4-1.9 5.3-6.1 9.5-11.4 11.4C77.2 95 72.7 95 63.6 95H36.4c-9 0-13.6 0-18.4-1.5-5.3-2-9.5-6.2-11.5-11.5C5 77.2 5 72.7 5 63.6V36.4c0-9 0-13.6 1.5-18.4 2-5.3 6.2-9.5 11.5-11.5C22.8 5 27.3 5 36.4 5h27.2z" fill="#FFF"/></g></g><path class="st1" d="M35.8 38c.9 0 1.7.1 2.5.3-.2-.8-.3-1.7-.3-2.5V23c0-.6.1-1.1.1-1.6-4.7-3.5-11.4-3.1-15.6 1.1s-4.6 10.9-1.1 15.6c.5-.1 1.1-.1 1.6-.1h12.8z" fill="#FF7E7B"/><path class="st2" d="M49.2 47.7c-.6 0-1.1-.1-1.7-.2.1.5.2 1.1.2 1.7.3-.2.5-.4.8-.7.2-.3.4-.5.7-.8z" fill="#FF6F3F"/><path class="st3" d="M48.5 31.5c.6.6 1.2 1.3 1.6 2 .5-.7 1-1.4 1.6-2l9-9c.4-.4.7-.7 1.1-1C61.2 15.6 56.1 11 50 11c-6.1 0-11.1 4.5-11.9 10.4.5.3.9.7 1.3 1.1l9.1 9z" fill="#FFAC00"/><path class="st4" d="M51 47.7c-.3-.4-.7-.8-.9-1.3-.3.4-.6.9-.9 1.3h.8c.3.1.7 0 1 0z" fill="#FFC300"/><path class="st5" d="M38 35.8c0 .9.1 1.7.3 2.5 4.6 1 8.2 4.6 9.2 9.2.5.1 1.1.2 1.7.2.3-.4.7-.8.9-1.3-2.5-3.9-2.5-9 0-12.9-.5-.7-1-1.4-1.6-2l-9-9c-.4-.4-.9-.8-1.3-1.1-.1.5-.2 1-.2 1.6v12.8z" fill="#FF3400"/><path class="st6" d="M62 35.8c0 .9-.1 1.7-.3 2.5.8-.2 1.7-.3 2.5-.3H77c.6 0 1.2.1 1.8.2 3.5-4.7 3.2-11.4-1.1-15.7-4.3-4.3-11.1-4.6-15.8-1 .1.5.1 1 .1 1.5v12.8z" fill="#F0EA0D"/><path class="st7" d="M52.3 49c0-.5.1-1 .2-1.5-.5.1-1 .2-1.5.2.2.3.5.5.7.8.2.2.4.3.6.5z" fill="#DAE411"/><path class="st8" d="M51.7 31.5c-.6.6-1.2 1.3-1.6 2 2.5 3.9 2.5 9 0 12.9.3.4.6.9.9 1.3.5 0 1-.1 1.5-.2 1-4.6 4.6-8.2 9.2-9.2.2-.8.3-1.7.3-2.5V23c0-.5 0-1-.1-1.5-.4.3-.8.6-1.1 1l-9.1 9z" fill="#EAA200"/><path class="st9" d="M50.1 33.5c-2.5 3.9-2.5 9 0 12.9 2.5-3.9 2.5-8.9 0-12.9z" fill="#E63300"/><path class="st10" d="M52.2 50c0 .4 0 .8.1 1.2.5-.4 1-.8 1.5-1.1-.5-.3-1-.7-1.5-1.1 0 .3-.1.7-.1 1z" fill="#83D567"/><path class="st11" d="M89 50c0-6-4.4-11-10.2-11.8-.3.5-.7.9-1.1 1.3l-9 9c-.6.6-1.3 1.2-2 1.6.7.5 1.4 1 2 1.6l9 9c.4.4.7.7 1 1.1C84.5 61 89 56.1 89 50z" fill="#A2DD50"/><path class="st12" d="M64.2 38c-.9 0-1.7.1-2.5.3-1 4.6-4.6 8.2-9.2 9.2-.1.5-.2 1-.2 1.5.5.4 1 .8 1.5 1.1 3.9-2.5 9-2.5 12.9 0 .7-.5 1.4-1 2-1.6l9-9c.4-.4.8-.9 1.1-1.3-.6-.1-1.2-.2-1.8-.2H64.2z" fill="#8BC100"/><path class="st13" d="M61.7 38.3c-4.6 1-8.2 4.6-9.2 9.2 4.6-1 8.2-4.6 9.2-9.2z" fill="#8D8800"/><path class="st14" d="M64.2 62c-.9 0-1.7-.1-2.5-.3.2.8.3 1.7.3 2.5V77c0 .6-.1 1.1-.1 1.7 4.7 3.7 11.5 3.4 15.9-1 4.3-4.3 4.7-11.1 1-15.9-.7.1-1.2.2-1.8.2H64.2z" fill="#44C899"/><path class="st15" d="M51.2 52.3c.4 0 .9.1 1.3.2-.1-.4-.2-.9-.2-1.3-.2.2-.4.3-.6.5s-.3.4-.5.6z" fill="#4EBFBD"/><path class="st16" d="M68.7 51.7c-.6-.6-1.3-1.2-2-1.6-3.9 2.5-9 2.5-12.9 0-.5.3-1 .7-1.5 1.1 0 .4.1.9.2 1.3 4.6 1 8.2 4.6 9.2 9.2.8.2 1.7.3 2.5.3H77c.6 0 1.1-.1 1.7-.1-.3-.4-.6-.8-1-1.1l-9-9.1z" fill="#00A33F"/><path class="st17" d="M53.8 50.1c3.9 2.5 9 2.5 12.9 0-4-2.5-9-2.5-12.9 0z" fill="#008D08"/><path class="st18" d="M49 52.3c.4.5.8 1 1.1 1.5.3-.5.7-1 1.1-1.5-.4 0-.8-.1-1.2-.1-.3 0-.7.1-1 .1z" fill="#859ED5"/><path class="st19" d="M51.7 68.7c-.6-.6-1.2-1.3-1.6-2-.5.7-1 1.4-1.6 2l-9 9c-.4.4-.9.8-1.3 1.1C39 84.6 44 89 50 89c6.1 0 11-4.5 11.9-10.3-.4-.3-.8-.6-1.1-1l-9.1-9z" fill="#6EACDF"/><path class="st20" d="M62 64.2c0-.9-.1-1.7-.3-2.5-4.6-1-8.2-4.6-9.2-9.2-.4-.1-.9-.2-1.3-.2-.4.5-.8 1-1.1 1.5 2.5 3.9 2.5 9 0 12.9.5.7 1 1.4 1.6 2l9 9c.4.4.7.7 1.1 1 .1-.6.1-1.1.1-1.7V64.2z" fill="#1D7B97"/><path class="st21" d="M61.7 61.7c-1-4.6-4.6-8.2-9.2-9.2 1 4.6 4.6 8.2 9.2 9.2z" fill="#00683A"/><path class="st22" d="M47.7 51c0 .5-.1 1-.2 1.5.5-.1 1-.2 1.5-.2-.2-.2-.3-.4-.5-.6-.3-.2-.5-.4-.8-.7z" fill="#BE85C1"/><path class="st23" d="M38 64.2c0-.9.1-1.7.3-2.5-.8.2-1.7.3-2.5.3H23c-.5 0-1 0-1.5-.1-3.7 4.7-3.3 11.5 1 15.8 4.3 4.3 11 4.6 15.7 1.1-.1-.6-.2-1.2-.2-1.8V64.2z" fill="#AB86C4"/><path class="st24" d="M48.5 68.7c.6-.6 1.2-1.3 1.6-2-2.5-3.9-2.5-9 0-12.9-.3-.5-.7-1-1.1-1.5-.5 0-1 .1-1.5.2-1 4.6-4.6 8.2-9.2 9.2-.2.8-.3 1.7-.3 2.5V77c0 .6.1 1.2.2 1.8.5-.3.9-.7 1.3-1.1l9-9z" fill="#5D53A6"/><path class="st25" d="M50.1 66.7c2.5-3.9 2.5-9 0-12.9-2.5 3.9-2.5 8.9 0 12.9z" fill="#243F76"/><path class="st26" d="M47.7 49.2c-.4.3-.8.7-1.3.9.4.3.9.6 1.3.9 0-.3.1-.7.1-1 0-.3-.1-.6-.1-.8z" fill="#F1648A"/><path class="st27" d="M31.5 51.7c.6-.6 1.3-1.2 2-1.6-.7-.5-1.4-1-2-1.6l-9-9c-.4-.4-.8-.9-1.1-1.3C15.5 38.9 11 43.9 11 50c0 6.1 4.6 11.2 10.5 11.9.3-.4.6-.8 1-1.1l9-9.1z" fill="#E275A8"/><path class="st28" d="M31.5 48.5c.6.6 1.3 1.2 2 1.6 3.9-2.5 9-2.5 12.9 0 .4-.3.9-.6 1.3-.9 0-.6-.1-1.1-.2-1.7-4.6-1-8.2-4.6-9.2-9.2-.8-.2-1.7-.3-2.5-.3H23c-.6 0-1.1.1-1.6.1.3.5.7.9 1.1 1.3l9 9.1z" fill="#E40017"/><path class="st29" d="M38.3 38.3c1 4.6 4.6 8.2 9.2 9.2-1-4.6-4.6-8.2-9.2-9.2z" fill="#E60000"/><path class="st30" d="M35.8 62c.9 0 1.7-.1 2.5-.3 1-4.6 4.6-8.2 9.2-9.2.1-.5.2-1 .2-1.5-.4-.3-.8-.7-1.3-.9-3.9 2.5-9 2.5-12.9 0-.7.5-1.4 1-2 1.6l-9 9c-.4.4-.7.7-1 1.1.5.2 1 .2 1.5.2h12.8z" fill="#9F3174"/><path class="st31" d="M33.5 50.1c3.9 2.5 9 2.5 12.9 0-3.9-2.5-8.9-2.5-12.9 0z" fill="#9F0017"/><path class="st32" d="M38.3 61.7c4.6-1 8.2-4.6 9.2-9.2-4.6 1-8.2 4.6-9.2 9.2z" fill="#561E5D"/></g></g><metadata><rdf:RDF xmlns:rdf="http://www.w3.org/1999/02/22-rdf-syntax-ns#" xmlns:rdfs="http://www.w3.org/2000/01/rdf-schema#" xmlns:dc="http://purl.org/dc/elements/1.1/"><rdf:Description about="https://iconscout.com/legal#licenses" dc:title="apple,photos" dc:description="apple,photos" dc:publisher="Iconscout" dc:date="2017-10-27" dc:format="image/svg+xml" dc:language="en"><dc:creator><rdf:Bag><rdf:li>Vicons Design</rdf:li></rdf:Bag></dc:creator></rdf:Description></rdf:RDF></metadata></svg>