<?xml version="1.0" encoding="UTF-8"?><svg xmlns="http://www.w3.org/2000/svg" xmlns:xlink="http://www.w3.org/1999/xlink" version="1.1" id="Layer_1" x="0px" y="0px" viewBox="0 0 100 100" xml:space="preserve"><style type="text/css">.st0{fill:url(#Background_13_);} .st1{fill:url(#path-2_7_);} .st2{filter:url(#Adobe_OpacityMaskFilter);} .st3{fill:#FFFFFF;} .st4{mask:url(#mask-3_1_);fill:#FFFFFF;} .st5{fill:url(#SVGID_1_);} .st6{fill:#1E1E1F;} .st7{fill:url(#Oval_6_);} .st8{stroke:#000000;stroke-width:0.3;} .st9{fill:#2B2A2A;} .st10{fill:#FF9500;} .st11{fill:url(#Background_14_);} .st12{fill:url(#path-2_8_);} .st13{filter:url(#Adobe_OpacityMaskFilter_1_);} .st14{mask:url(#mask-3_2_);} .st15{fill:#FFFFFF;fill-opacity:0.7;} .st16{fill:url(#Background_15_);} .st17{fill:url(#Background_16_);} .st18{fill:url(#Background_17_);} .st19{filter:url(#Adobe_OpacityMaskFilter_2_);} .st20{mask:url(#mask-2_6_);fill-opacity:0.29;} .st21{filter:url(#Adobe_OpacityMaskFilter_3_);} .st22{mask:url(#mask-2_5_);} .st23{fill:url(#path-4_2_);} .st24{filter:url(#Adobe_OpacityMaskFilter_4_);} .st25{mask:url(#mask-2_4_);} .st26{fill:#AAAAAA;} .st27{fill:url(#Background_18_);} .st28{fill:#141416;} .st29{filter:url(#Adobe_OpacityMaskFilter_5_);} .st30{mask:url(#mask-2_3_);fill:url(#Chart_1_);stroke:#FFFFFF;stroke-width:0.75;} .st31{filter:url(#Adobe_OpacityMaskFilter_6_);} .st32{mask:url(#mask-2_2_);} .st33{fill:#01A6F1;} .st34{filter:url(#Adobe_OpacityMaskFilter_7_);} .st35{mask:url(#mask-2_1_);fill:#777778;} .st36{fill:url(#Background_19_);} .st37{fill:#2E2E30;} .st38{fill:#7F7F7F;} .st39{fill:#777777;} .st40{fill:none;} .st41{fill:url(#SVGID_2_);} .st42{fill:url(#Oval_7_);} .st43{filter:url(#Adobe_OpacityMaskFilter_8_);} .st44{mask:url(#mask-3_3_);fill:#FF1414;} .st45{filter:url(#Adobe_OpacityMaskFilter_9_);} .st46{mask:url(#mask-2_8_);} .st47{fill:#1BADF8;} .st48{fill:#63DA38;} .st49{filter:url(#Adobe_OpacityMaskFilter_10_);} .st50{mask:url(#mask-2_7_);} .st51{fill:#B7B7B7;} .st52{filter:url(#Adobe_OpacityMaskFilter_11_);} .st53{mask:url(#mask-2_24_);fill:url(#Red_1_);} .st54{filter:url(#Adobe_OpacityMaskFilter_12_);} .st55{mask:url(#mask-2_23_);fill:url(#Orange_1_);} .st56{filter:url(#Adobe_OpacityMaskFilter_13_);} .st57{mask:url(#mask-2_22_);fill:url(#Yellow_1_);} .st58{filter:url(#Adobe_OpacityMaskFilter_14_);} .st59{mask:url(#mask-2_21_);fill:url(#Green_1_);} .st60{filter:url(#Adobe_OpacityMaskFilter_15_);} .st61{mask:url(#mask-2_20_);fill:url(#Turquoise_1_);} .st62{filter:url(#Adobe_OpacityMaskFilter_16_);} .st63{mask:url(#mask-2_19_);fill:url(#Blue_1_);} .st64{filter:url(#Adobe_OpacityMaskFilter_17_);} .st65{mask:url(#mask-2_18_);fill:url(#Purple_1_);} .st66{filter:url(#Adobe_OpacityMaskFilter_18_);} .st67{mask:url(#mask-2_17_);fill:url(#Pink_1_);} .st68{fill:url(#Background_20_);} .st69{fill:#353535;} .st70{fill:url(#SVGID_3_);}</style><g id="Symbols_2_"><path id="Background_1_" class="st6" d="M63.6 5c9 0 13.5 0 18.4 1.5 5.3 1.9 9.5 6.1 11.4 11.4C95 22.8 95 27.4 95 36.4v27.2c0 9 0 13.5-1.5 18.4-1.9 5.3-6.1 9.5-11.4 11.4C77.2 95 72.6 95 63.6 95H36.4c-9 0-13.5 0-18.4-1.5-5.3-2-9.5-6.1-11.4-11.5C5 77.2 5 72.7 5 63.6V36.4c0-9 0-13.5 1.5-18.4 2-5.3 6.2-9.5 11.5-11.4C22.8 5 27.4 5 36.4 5h27.2z" fill="#1E1E1F"/><g id="Icon_1_" transform="translate(4.000000, 4.000000)"><linearGradient id="Oval_6_" gradientUnits="userSpaceOnUse" x1="46.9038" y1="745.3456" x2="46.9038" y2="743.8461" gradientTransform="matrix(52 0 0 -52 -2393 38765)"><stop offset="0" stop-color="#F5F4F9"/><stop offset="1" stop-color="#EEE"/></linearGradient><circle id="Oval" class="st7" cx="46" cy="46" r="39" fill="url(#Oval_6_)"/><g id="Numbers" transform="translate(4.500000, 3.500000)"><path id="_x31_2" class="st8" d="M39.7 15.5V9.1h-.6c0 .2-.1.4-.2.6-.1.2-.3.3-.4.4-.2.1-.3.2-.6.2h-.6v.7H39v4.6h.7zm2.2-4.1h.8c0-.2 0-.4.1-.6 0-.2.1-.4.2-.5.1-.2.2-.3.4-.4.2-.1.3-.1.6-.1.2 0 .3 0 .5.1.1.1.3.1.4.2.1.1.2.2.3.4.1.1.1.3.1.5s0 .4-.1.6c-.1.2-.2.3-.3.5-.1.1-.3.3-.5.4-.2.1-.4.3-.7.5-.2.1-.4.3-.6.4-.2.1-.4.3-.5.5-.2.2-.3.4-.4.7-.1.3-.2.6-.2 1h4.2v-.7h-3.3c0-.2.1-.4.2-.5.1-.2.3-.3.4-.4.2-.1.3-.3.5-.4.2-.1.4-.2.6-.4.2-.1.4-.3.6-.4.2-.1.4-.3.5-.5.1-.2.3-.4.3-.6.1-.2.1-.5.1-.7 0-.3-.1-.6-.2-.8-.1-.2-.2-.4-.4-.6-.2-.2-.4-.3-.6-.4-.2-.1-.5-.1-.8-.1-.3 0-.6.1-.9.2-.3.1-.5.3-.7.5-.2.2-.3.4-.4.7-.2.3-.2.6-.2.9z" stroke="#000" stroke-width="0.3"/><path id="_x31_1" class="st8" d="M24.7 20v-6.4h-.6c0 .2-.1.4-.2.6-.1.2-.3.3-.4.4-.2.1-.3.2-.6.2h-.6v.6H24V20h.7zm5 0v-6.4h-.6c0 .2-.1.4-.2.6-.1.2-.3.3-.4.4-.2.1-.3.2-.6.2h-.6v.6H29V20h.7z" stroke="#000" stroke-width="0.3"/><path id="_x31_0" class="st8" d="M12.7 31.3v-6.4h-.6c0 .2-.1.4-.2.6-.1.2-.3.3-.4.4-.2.1-.3.2-.6.2h-.6v.6H12v4.6h.7zm3-3.2v-.5-.6c0-.2.1-.4.1-.6.1-.2.1-.3.2-.5.1-.1.2-.2.4-.3.1-.1.3-.1.5-.1s.4 0 .5.1c.1.1.3.2.4.3.1.1.2.3.2.5.1.2.1.4.1.6V28.9c0 .3-.1.6-.1.8-.1.3-.2.5-.4.7-.2.2-.4.3-.8.3s-.6-.1-.8-.3c-.2-.2-.3-.4-.4-.7-.1-.3-.1-.5-.1-.8s.2-.5.2-.8zm-.8 0v.7c0 .3 0 .5.1.7 0 .2.1.5.2.7.1.2.2.4.4.6.2.2.4.3.6.4.2.1.5.1.9.1.3 0 .6 0 .9-.1.2-.1.4-.2.6-.4.2-.2.3-.3.4-.6.1-.2.2-.4.2-.7 0-.2.1-.5.1-.7v-.7-.7c0-.3 0-.5-.1-.7 0-.2-.1-.5-.2-.7-.1-.2-.2-.4-.4-.6-.2-.2-.4-.3-.6-.4-.2-.1-.5-.1-.9-.1-.3 0-.6 0-.9.1-.2.1-.4.2-.6.4-.2.2-.3.4-.4.6-.1.2-.2.4-.2.7 0 .2-.1.5-.1.7v.7z" stroke="#000" stroke-width="0.3"/><path id="_x39_" class="st8" d="M10.2 44h-.8c0 .6.2 1 .6 1.2.4.3.8.4 1.3.4.8 0 1.3-.3 1.7-.9.4-.6.5-1.4.5-2.5 0-.6-.1-1.1-.2-1.5-.1-.4-.3-.7-.5-.9-.2-.2-.4-.4-.7-.5-.3-.1-.5-.1-.8-.1-.3 0-.6.1-.8.2-.3.1-.5.2-.7.4-.2.2-.3.4-.4.7-.1.3-.2.5-.2.8 0 .3 0 .6.1.9s.2.5.4.7c.2.2.4.3.6.4.3.1.5.2.9.2.3 0 .6-.1.9-.2.3-.2.5-.4.6-.6 0 .8-.2 1.5-.4 1.9-.2.4-.6.6-1.1.6-.3 0-.6-.1-.8-.3s-.2-.6-.2-.9zm2.5-2.7c0 .2 0 .4-.1.5-.1.2-.1.3-.3.4-.1.1-.3.2-.4.3-.2.1-.3.1-.5.1s-.4 0-.5-.1c-.2-.1-.3-.2-.4-.3-.1-.1-.2-.3-.3-.4-.1-.2-.1-.3-.1-.5s0-.4.1-.6c0-.2.1-.3.2-.5.1-.1.2-.3.4-.3.2-.1.4-.1.6-.1.2 0 .4 0 .6.1.2.1.3.2.4.3.1.1.2.3.3.5v.6z" stroke="#000" stroke-width="0.3"/><path id="_x38_" class="st8" d="M13.4 56.5c0-.2 0-.3.1-.4.1-.1.1-.2.2-.3.1-.1.2-.1.4-.2.1 0 .3-.1.4-.1.3 0 .6.1.8.2.2.2.3.4.3.7 0 .3-.1.6-.3.8-.2.2-.4.3-.8.3-.2 0-.3 0-.4-.1-.1 0-.3-.1-.4-.2-.1-.1-.2-.2-.2-.3-.1 0-.1-.2-.1-.4zm-.8 0c0 .3.1.6.2.8.2.2.4.4.6.5-.4.1-.6.3-.8.6-.2.3-.3.6-.3 1 0 .3.1.6.2.9.1.2.3.4.5.6.2.2.4.3.7.4.3.1.5.1.9.1.3 0 .6 0 .8-.1.3-.1.5-.2.7-.4.2-.2.3-.4.4-.6.1-.2.2-.5.2-.8 0-.4-.1-.7-.3-1-.2-.3-.5-.5-.9-.6.3-.1.5-.3.6-.5.2-.2.2-.5.2-.8 0-.2 0-.4-.1-.6-.1-.2-.2-.4-.3-.5-.2-.2-.4-.3-.6-.4-.2-.1-.5-.1-.9-.1-.2 0-.5 0-.7.1l-.6.3c-.2.1-.3.3-.4.5-.1.1-.1.3-.1.6zm.6 3c0-.2 0-.4.1-.5.1-.1.2-.3.3-.4.1-.1.3-.2.4-.2.2-.1.3-.1.5-.1s.3 0 .5.1.3.1.4.3c.1.1.2.2.3.4.1.1.1.3.1.5s0 .3-.1.5c-.1.1-.2.3-.3.4-.1.1-.3.2-.4.3-.2.1-.3.1-.5.1-.4 0-.7-.1-1-.3-.2-.5-.3-.8-.3-1.1z" stroke="#000" stroke-width="0.3"/><path id="_x37_" class="st8" d="M27.8 66.1v-.7h-4.1v.7H27c-.3.4-.6.7-.9 1.2-.3.4-.5.9-.8 1.3-.2.5-.4 1-.5 1.5-.1.5-.2 1-.3 1.6h.9c0-.5.1-1 .3-1.5.1-.5.3-1 .5-1.5s.5-1 .8-1.4c.2-.5.5-.8.8-1.2z" stroke="#000" stroke-width="0.3"/><path id="_x36_" class="st8" d="M42.7 71.5h.8c0-.5-.2-.9-.5-1.2-.3-.3-.7-.4-1.3-.4-.5 0-.8.1-1.1.3-.3.2-.5.4-.7.8-.2.3-.3.7-.4 1.1-.1.4-.1.8-.1 1.3 0 .3 0 .7.1 1 .1.4.2.7.3 1 .2.3.4.5.7.7.3.2.7.3 1.1.3.4 0 .7-.1 1-.2.3-.1.5-.3.7-.5.2-.2.3-.4.4-.7.1-.3.1-.5.1-.7 0-.3 0-.6-.1-.8-.1-.3-.2-.5-.4-.7-.2-.2-.4-.3-.6-.4-.2-.1-.5-.2-.8-.2-.3 0-.7.1-.9.2-.3.1-.5.3-.7.6 0-.2 0-.5.1-.8 0-.3.1-.5.2-.8.1-.2.3-.4.5-.6.2-.2.5-.2.8-.2.3 0 .6.1.7.3 0 .1.1.3.1.6zm-1.1 1.3c.2 0 .4 0 .6.1.2.1.3.2.4.3.1.1.2.3.2.5.1.2.1.4.1.6 0 .2 0 .4-.1.5-.1.2-.1.3-.2.5-.1.1-.2.2-.4.3-.2.1-.3.1-.6.1-.2 0-.4 0-.6-.1-.2-.1-.3-.2-.4-.3-.1-.1-.2-.3-.3-.4-.1-.2-.1-.4-.1-.6 0-.2 0-.4.1-.6.1-.2.1-.3.3-.5.1-.1.3-.2.4-.3.2 0 .4-.1.6-.1z" stroke="#000" stroke-width="0.3"/><path id="_x35_" class="st8" d="M59 66.2v-.7h-3.1l-.6 3.3h.7c.1-.2.3-.3.5-.4.2-.1.4-.2.7-.2.2 0 .4 0 .6.1.2.1.3.2.5.3.1.1.2.3.3.5.1.2.1.4.1.6 0 .3 0 .5-.1.7-.1.2-.2.3-.3.5-.1.1-.3.2-.4.3-.2.1-.3.1-.5.1s-.4 0-.5-.1c-.2-.1-.3-.1-.4-.2-.1-.1-.2-.2-.3-.4-.1-.1-.1-.3-.1-.5h-.8c0 .3.1.5.2.8.1.2.3.4.4.6.2.2.4.3.6.4.2.1.5.1.8.1.4 0 .7-.1 1-.2.3-.1.5-.3.7-.5.2-.2.3-.4.4-.7.1-.3.1-.5.1-.8 0-.4-.1-.7-.2-1-.1-.3-.3-.5-.4-.7-.2-.2-.4-.3-.7-.4-.3-.1-.5-.1-.8-.1-.2 0-.4 0-.7.1-.2.1-.4.2-.5.3l.3-1.8H59z" stroke="#000" stroke-width="0.3"/><path id="_x34_" class="st8" d="M69 59.1h-2.1L69 56v3.1zm.8 0v-4.2h-.6l-3 4.1v.7H69v1.5h.7v-1.5h.9V59h-.8z" stroke="#000" stroke-width="0.3"/><path id="_x33_" class="st8" d="M71.7 41.9v.6h.5c.2 0 .4 0 .5.1.2.1.3.1.4.2.1.1.2.2.3.4.1.2.1.3.1.5s0 .4-.1.5c-.1.2-.2.3-.3.4-.1.1-.3.2-.4.2-.2.1-.3.1-.5.1-.4 0-.8-.1-1-.4-.2-.3-.3-.6-.4-1H70c0 .3 0 .6.1.9.1.3.2.5.4.7.2.2.4.3.7.4.3.1.6.1.9.1.3 0 .6 0 .9-.1.3-.1.5-.2.7-.4.2-.2.4-.4.5-.6.1-.2.2-.5.2-.8 0-.4-.1-.7-.3-1-.2-.3-.5-.5-.9-.5.3-.1.5-.3.6-.5.2-.2.3-.5.3-.8 0-.3 0-.5-.1-.8-.1-.2-.2-.4-.4-.5l-.6-.3c-.2-.1-.5-.1-.8-.1-.3 0-.6.1-.8.2-.2.1-.4.2-.6.4-.2.2-.3.4-.4.6-.1.3-.1.5-.1.8h.8c0-.2 0-.4.1-.5 0-.2.1-.3.2-.4.1-.1.2-.2.4-.3.2-.1.3-.1.5-.1.3 0 .6.1.8.3.2.2.3.4.3.8 0 .2 0 .3-.1.4l-.3.3c-.1.1-.2.2-.4.2-.1 0-.3.1-.5.1h-.2l-.2-.1c.1 0 0 0 0 0z" stroke="#000" stroke-width="0.3"/><path id="_x32_" class="st8" d="M65.6 27.1h.8c0-.2 0-.4.1-.6s.1-.4.2-.5c.1-.2.2-.3.4-.4.2-.1.3-.1.6-.1.2 0 .3 0 .5.1.1.1.3.1.4.2.1.1.2.2.3.4.1.1.1.3.1.5s0 .4-.1.6c-.1.2-.2.3-.3.5-.1.1-.3.3-.5.4-.2.1-.4.3-.7.5-.2.1-.4.3-.6.4-.2.1-.4.3-.5.5-.2.2-.3.4-.4.7-.1.3-.2.6-.2 1h4.2v-.7h-3.3c0-.2.1-.4.2-.5.1-.2.3-.3.4-.4.2-.1.3-.3.5-.4.2-.1.4-.2.6-.4.2-.1.4-.3.6-.4.2-.1.4-.3.5-.5.1-.2.3-.4.3-.6.1-.2.1-.5.1-.7 0-.3-.1-.6-.2-.8-.1-.2-.2-.4-.4-.6-.2-.2-.4-.3-.6-.4-.2-.1-.5-.1-.8-.1-.3 0-.6.1-.9.2-.3.1-.5.3-.7.5-.2.2-.3.4-.4.7-.1.3-.2.6-.2.9z" stroke="#000" stroke-width="0.3"/><path id="_x31_" class="st8" d="M57.2 20v-6.4h-.6c0 .2-.1.4-.2.6-.1.2-.3.3-.4.4-.2.1-.3.2-.6.2h-.6v.6h1.7V20h.7z" stroke="#000" stroke-width="0.3"/></g><g id="Arrows" transform="translate(18.000000, 11.000000)"><path id="Arrow" class="st9" d="M21.5 12.8c.3-.1.6.1.7.4l6.7 21.9c.1.3-.1.6-.4.7-.3.1-.6-.1-.7-.4l-6.7-21.9c0-.3.1-.6.4-.7z" fill="#2B2A2A"/><path id="Arrow_1_" class="st9" d="M27.9 34.6c.2-.1.5 0 .7.2l15.1 30c.1.2 0 .5-.2.7-.2.1-.5 0-.7-.2l-15.1-30c-.2-.3-.1-.6.2-.7z" fill="#2B2A2A"/><path id="Arrow_2_" class="st10" d="M29.8 29.9c.2.1.3.3.2.5l-12.7 37c-.1.2-.3.3-.5.2-.2-.1-.3-.3-.2-.5l12.7-37c.1-.2.3-.3.5-.2z" fill="#FF9500"/><path id="Oval_1_" class="st9" d="M28 33.1c1 0 1.9.8 1.9 1.9 0 1-.8 1.9-1.9 1.9-1 0-1.9-.8-1.9-1.9 0-1 .9-1.9 1.9-1.9z" fill="#2B2A2A"/><circle id="Oval_2_" class="st10" cx="28" cy="35" r="1.5" fill="#FF9500"/></g></g></g><metadata><rdf:RDF xmlns:rdf="http://www.w3.org/1999/02/22-rdf-syntax-ns#" xmlns:rdfs="http://www.w3.org/2000/01/rdf-schema#" xmlns:dc="http://purl.org/dc/elements/1.1/"><rdf:Description about="https://iconscout.com/legal#licenses" dc:title="apple,clock" dc:description="apple,clock" dc:publisher="Iconscout" dc:date="2017-10-27" dc:format="image/svg+xml" dc:language="en"><dc:creator><rdf:Bag><rdf:li>Vicons Design</rdf:li></rdf:Bag></dc:creator></rdf:Description></rdf:RDF></metadata></svg>